<mxfile host="app.diagrams.net" modified="2024-03-15T22:32:09.192Z" agent="Mozilla/5.0 (Macintosh; Intel Mac OS X 10_15_7) AppleWebKit/605.1.15 (KHTML, like Gecko) Version/17.3.1 Safari/605.1.1517.3.1 Ddg/17.3.1" version="24.0.6" etag="AgyYPlNOvJmdaRSu684Z" type="github">
  <diagram name="Page-1" id="r-trZT1NZWgIiJ5V_tFs">
    <mxGraphModel>
      <root>
        <mxCell id="0" />
        <mxCell id="1" parent="0" />
      </root>
    </mxGraphModel>
  </diagram>
</mxfile>
